<mxfile host="app.diagrams.net" modified="2022-01-17T09:52:06.705Z" agent="5.0 (Windows NT 10.0; WOW64) AppleWebKit/537.36 (KHTML, like Gecko) Chrome/70.0.3538.25 Safari/537.36 Core/1.70.3879.400 QQBrowser/10.8.4552.400" etag="E9ThHjuoOysWg-Wey4Lt" version="16.2.7" type="github">
  <diagram id="K8bH0kipLZ9rEDlnG2lr" name="Page-1">
    <mxGraphModel dx="2258" dy="784" grid="1" gridSize="10" guides="1" tooltips="1" connect="1" arrows="1" fold="1" page="1" pageScale="1" pageWidth="850" pageHeight="1400" math="0" shadow="0">
      <root>
        <mxCell id="0" />
        <mxCell id="1" parent="0" />
        <mxCell id="Bgl1Vfubp7OZOoUCv1JT-42" value="&lt;p class=&quot;MsoNormal&quot; style=&quot;font-size: 12px&quot;&gt;&lt;span style=&quot;font-size: 12px&quot;&gt;&lt;span style=&quot;font-size: 12px&quot;&gt;&lt;font face=&quot;宋体&quot; style=&quot;font-size: 12px ; line-height: 1.2&quot;&gt;算法部分-设立自动化涉嫌欺诈黑名单名单&lt;/font&gt;&lt;/span&gt;&lt;/span&gt;&lt;/p&gt;" style="rounded=0;whiteSpace=wrap;html=1;labelBackgroundColor=none;labelBorderColor=none;verticalAlign=top;align=left;fontStyle=1;fontSize=12;labelPosition=center;verticalLabelPosition=middle;fillColor=#dae8fc;strokeColor=#6c8ebf;" vertex="1" parent="1">
          <mxGeometry x="-810" y="740" width="740" height="730" as="geometry" />
        </mxCell>
        <mxCell id="Bgl1Vfubp7OZOoUCv1JT-1" value="算法部分-自动化处理环节" style="text;html=1;strokeColor=#6c8ebf;fillColor=#dae8fc;align=left;verticalAlign=top;whiteSpace=wrap;fontSize=14;fontStyle=1" vertex="1" parent="1">
          <mxGeometry x="-810" y="30" width="740" height="670" as="geometry" />
        </mxCell>
        <mxCell id="Bgl1Vfubp7OZOoUCv1JT-38" value="" style="edgeStyle=orthogonalEdgeStyle;rounded=1;orthogonalLoop=1;jettySize=auto;html=1;labelBackgroundColor=default;" edge="1" parent="1" source="Bgl1Vfubp7OZOoUCv1JT-31" target="Bgl1Vfubp7OZOoUCv1JT-12">
          <mxGeometry relative="1" as="geometry" />
        </mxCell>
        <mxCell id="Bgl1Vfubp7OZOoUCv1JT-39" value="" style="edgeStyle=orthogonalEdgeStyle;rounded=1;orthogonalLoop=1;jettySize=auto;html=1;labelBackgroundColor=default;" edge="1" parent="1" source="Bgl1Vfubp7OZOoUCv1JT-31" target="Bgl1Vfubp7OZOoUCv1JT-12">
          <mxGeometry relative="1" as="geometry" />
        </mxCell>
        <mxCell id="Bgl1Vfubp7OZOoUCv1JT-31" value="" style="rounded=0;whiteSpace=wrap;fillColor=#d0cee2;strokeColor=#56517e;" vertex="1" parent="1">
          <mxGeometry x="-360" y="140" width="230" height="560" as="geometry" />
        </mxCell>
        <mxCell id="Bgl1Vfubp7OZOoUCv1JT-30" value="" style="rounded=0;whiteSpace=wrap;html=1;fillColor=#bac8d3;strokeColor=#23445d;" vertex="1" parent="1">
          <mxGeometry x="-650" y="140" width="310" height="560" as="geometry" />
        </mxCell>
        <mxCell id="Bgl1Vfubp7OZOoUCv1JT-9" value="" style="edgeStyle=orthogonalEdgeStyle;rounded=1;orthogonalLoop=1;jettySize=auto;html=1;" edge="1" parent="1" source="Bgl1Vfubp7OZOoUCv1JT-2" target="Bgl1Vfubp7OZOoUCv1JT-8">
          <mxGeometry relative="1" as="geometry" />
        </mxCell>
        <mxCell id="Bgl1Vfubp7OZOoUCv1JT-2" value="举报数据" style="rounded=1;whiteSpace=wrap;html=1;fillColor=#fff2cc;gradientColor=#ffd966;strokeColor=#d6b656;" vertex="1" parent="1">
          <mxGeometry x="-450" y="40" width="120" height="60" as="geometry" />
        </mxCell>
        <mxCell id="Bgl1Vfubp7OZOoUCv1JT-11" value="" style="edgeStyle=orthogonalEdgeStyle;rounded=0;orthogonalLoop=1;jettySize=auto;html=1;entryX=0.5;entryY=0;entryDx=0;entryDy=0;dashed=1;dashPattern=1 4;" edge="1" parent="1" source="Bgl1Vfubp7OZOoUCv1JT-8" target="Bgl1Vfubp7OZOoUCv1JT-10">
          <mxGeometry relative="1" as="geometry" />
        </mxCell>
        <mxCell id="Bgl1Vfubp7OZOoUCv1JT-22" value="符合" style="edgeLabel;html=1;align=center;verticalAlign=middle;resizable=0;points=[];labelBackgroundColor=none;fontStyle=2" vertex="1" connectable="0" parent="Bgl1Vfubp7OZOoUCv1JT-11">
          <mxGeometry x="-0.3622" y="1" relative="1" as="geometry">
            <mxPoint as="offset" />
          </mxGeometry>
        </mxCell>
        <mxCell id="Bgl1Vfubp7OZOoUCv1JT-19" value="" style="edgeStyle=orthogonalEdgeStyle;rounded=1;orthogonalLoop=1;jettySize=auto;html=1;entryX=0.5;entryY=0;entryDx=0;entryDy=0;labelBackgroundColor=default;dashed=1;" edge="1" parent="1" source="Bgl1Vfubp7OZOoUCv1JT-8" target="Bgl1Vfubp7OZOoUCv1JT-18">
          <mxGeometry relative="1" as="geometry">
            <mxPoint x="-360" y="200" as="targetPoint" />
          </mxGeometry>
        </mxCell>
        <mxCell id="Bgl1Vfubp7OZOoUCv1JT-21" value="不符合" style="edgeLabel;align=center;verticalAlign=middle;resizable=0;points=[];labelBackgroundColor=none;labelBorderColor=none;fontStyle=2;html=1;" vertex="1" connectable="0" parent="Bgl1Vfubp7OZOoUCv1JT-19">
          <mxGeometry x="-0.8267" relative="1" as="geometry">
            <mxPoint x="4" as="offset" />
          </mxGeometry>
        </mxCell>
        <mxCell id="Bgl1Vfubp7OZOoUCv1JT-8" value="&lt;span&gt;用户数据判定&lt;/span&gt;" style="rhombus;whiteSpace=wrap;html=1;rounded=1;fillColor=#cdeb8b;strokeColor=#36393d;" vertex="1" parent="1">
          <mxGeometry x="-520" y="140" width="80" height="80" as="geometry" />
        </mxCell>
        <mxCell id="Bgl1Vfubp7OZOoUCv1JT-13" value="" style="edgeStyle=orthogonalEdgeStyle;rounded=0;orthogonalLoop=1;jettySize=auto;html=1;dashed=1;dashPattern=1 4;" edge="1" parent="1" source="Bgl1Vfubp7OZOoUCv1JT-10" target="Bgl1Vfubp7OZOoUCv1JT-12">
          <mxGeometry relative="1" as="geometry" />
        </mxCell>
        <mxCell id="Bgl1Vfubp7OZOoUCv1JT-23" value="符合" style="edgeLabel;html=1;align=center;verticalAlign=middle;resizable=0;points=[];labelBackgroundColor=none;fontStyle=2" vertex="1" connectable="0" parent="Bgl1Vfubp7OZOoUCv1JT-13">
          <mxGeometry x="-0.3818" relative="1" as="geometry">
            <mxPoint as="offset" />
          </mxGeometry>
        </mxCell>
        <mxCell id="Bgl1Vfubp7OZOoUCv1JT-24" value="" style="edgeStyle=orthogonalEdgeStyle;rounded=1;orthogonalLoop=1;jettySize=auto;html=1;entryX=0.5;entryY=0;entryDx=0;entryDy=0;dashed=1;" edge="1" parent="1" source="Bgl1Vfubp7OZOoUCv1JT-10" target="Bgl1Vfubp7OZOoUCv1JT-18">
          <mxGeometry relative="1" as="geometry">
            <mxPoint x="-360" y="300" as="targetPoint" />
          </mxGeometry>
        </mxCell>
        <mxCell id="Bgl1Vfubp7OZOoUCv1JT-25" value="不符合" style="edgeLabel;html=1;align=center;verticalAlign=middle;resizable=0;points=[];labelBackgroundColor=none;fontStyle=2" vertex="1" connectable="0" parent="Bgl1Vfubp7OZOoUCv1JT-24">
          <mxGeometry x="-0.7895" y="-3" relative="1" as="geometry">
            <mxPoint x="5" y="-3" as="offset" />
          </mxGeometry>
        </mxCell>
        <mxCell id="Bgl1Vfubp7OZOoUCv1JT-10" value="追诉期&lt;span&gt;判定&lt;/span&gt;" style="rhombus;whiteSpace=wrap;html=1;rounded=1;fillColor=#cdeb8b;strokeColor=#36393d;" vertex="1" parent="1">
          <mxGeometry x="-520" y="260" width="80" height="80" as="geometry" />
        </mxCell>
        <mxCell id="Bgl1Vfubp7OZOoUCv1JT-17" value="" style="edgeStyle=orthogonalEdgeStyle;rounded=0;orthogonalLoop=1;jettySize=auto;html=1;dashed=1;dashPattern=1 4;" edge="1" parent="1" source="Bgl1Vfubp7OZOoUCv1JT-12" target="Bgl1Vfubp7OZOoUCv1JT-16">
          <mxGeometry relative="1" as="geometry" />
        </mxCell>
        <mxCell id="Bgl1Vfubp7OZOoUCv1JT-29" value="符合" style="edgeLabel;html=1;align=center;verticalAlign=middle;resizable=0;points=[];labelBackgroundColor=none;fontStyle=2" vertex="1" connectable="0" parent="Bgl1Vfubp7OZOoUCv1JT-17">
          <mxGeometry x="-0.4261" y="2" relative="1" as="geometry">
            <mxPoint as="offset" />
          </mxGeometry>
        </mxCell>
        <mxCell id="Bgl1Vfubp7OZOoUCv1JT-26" value="" style="edgeStyle=orthogonalEdgeStyle;rounded=1;orthogonalLoop=1;jettySize=auto;html=1;dashed=1;entryX=0.5;entryY=0;entryDx=0;entryDy=0;" edge="1" parent="1" source="Bgl1Vfubp7OZOoUCv1JT-12" target="Bgl1Vfubp7OZOoUCv1JT-18">
          <mxGeometry relative="1" as="geometry">
            <mxPoint x="-270" y="510" as="targetPoint" />
          </mxGeometry>
        </mxCell>
        <mxCell id="Bgl1Vfubp7OZOoUCv1JT-27" value="不符合" style="edgeLabel;html=1;align=center;verticalAlign=middle;resizable=0;points=[];labelBackgroundColor=none;fontStyle=2" vertex="1" connectable="0" parent="Bgl1Vfubp7OZOoUCv1JT-26">
          <mxGeometry x="-0.7077" y="1" relative="1" as="geometry">
            <mxPoint x="1" y="1" as="offset" />
          </mxGeometry>
        </mxCell>
        <mxCell id="Bgl1Vfubp7OZOoUCv1JT-12" value="补充策略&lt;span&gt;判定&lt;/span&gt;" style="rhombus;whiteSpace=wrap;html=1;rounded=1;fillColor=#cdeb8b;strokeColor=#36393d;" vertex="1" parent="1">
          <mxGeometry x="-520" y="380" width="80" height="80" as="geometry" />
        </mxCell>
        <mxCell id="Bgl1Vfubp7OZOoUCv1JT-35" value="" style="edgeStyle=orthogonalEdgeStyle;rounded=1;orthogonalLoop=1;jettySize=auto;html=1;labelBackgroundColor=default;dashed=1;" edge="1" parent="1" source="Bgl1Vfubp7OZOoUCv1JT-16" target="Bgl1Vfubp7OZOoUCv1JT-34">
          <mxGeometry relative="1" as="geometry" />
        </mxCell>
        <mxCell id="Bgl1Vfubp7OZOoUCv1JT-41" value="不符合" style="edgeLabel;html=1;align=center;verticalAlign=middle;resizable=0;points=[];labelBackgroundColor=none;fontStyle=2" vertex="1" connectable="0" parent="Bgl1Vfubp7OZOoUCv1JT-35">
          <mxGeometry x="0.2167" y="3" relative="1" as="geometry">
            <mxPoint as="offset" />
          </mxGeometry>
        </mxCell>
        <mxCell id="Bgl1Vfubp7OZOoUCv1JT-37" value="" style="edgeStyle=orthogonalEdgeStyle;rounded=1;orthogonalLoop=1;jettySize=auto;html=1;labelBackgroundColor=default;dashed=1;" edge="1" parent="1" source="Bgl1Vfubp7OZOoUCv1JT-16" target="Bgl1Vfubp7OZOoUCv1JT-36">
          <mxGeometry relative="1" as="geometry" />
        </mxCell>
        <mxCell id="Bgl1Vfubp7OZOoUCv1JT-40" value="&lt;span style=&quot;&quot;&gt;符合&lt;/span&gt;" style="edgeLabel;html=1;align=center;verticalAlign=middle;resizable=0;points=[];labelBackgroundColor=none;fontStyle=2" vertex="1" connectable="0" parent="Bgl1Vfubp7OZOoUCv1JT-37">
          <mxGeometry x="0.2462" y="-2" relative="1" as="geometry">
            <mxPoint as="offset" />
          </mxGeometry>
        </mxCell>
        <mxCell id="Bgl1Vfubp7OZOoUCv1JT-16" value="&lt;span style=&quot;font-size: 14px&quot;&gt;系统处理&lt;/span&gt;" style="ellipse;whiteSpace=wrap;html=1;rounded=1;fillColor=#cdeb8b;strokeColor=#36393d;" vertex="1" parent="1">
          <mxGeometry x="-540" y="500" width="120" height="60" as="geometry" />
        </mxCell>
        <mxCell id="Bgl1Vfubp7OZOoUCv1JT-18" value="&lt;span style=&quot;font-size: 14px&quot;&gt;转人工处理&lt;/span&gt;" style="ellipse;whiteSpace=wrap;html=1;rounded=1;" vertex="1" parent="1">
          <mxGeometry x="-305" y="620" width="120" height="60" as="geometry" />
        </mxCell>
        <mxCell id="Bgl1Vfubp7OZOoUCv1JT-32" value="自动化环节" style="text;html=1;strokeColor=none;fillColor=none;align=center;verticalAlign=middle;whiteSpace=wrap;rounded=0;fontStyle=1" vertex="1" parent="1">
          <mxGeometry x="-650" y="140" width="90" height="30" as="geometry" />
        </mxCell>
        <mxCell id="Bgl1Vfubp7OZOoUCv1JT-33" value="人工环节" style="text;html=1;strokeColor=none;fillColor=none;align=center;verticalAlign=middle;whiteSpace=wrap;rounded=0;fontStyle=1" vertex="1" parent="1">
          <mxGeometry x="-210" y="140" width="80" height="30" as="geometry" />
        </mxCell>
        <mxCell id="Bgl1Vfubp7OZOoUCv1JT-34" value="&lt;p class=&quot;MsoNormal&quot;&gt;&lt;span&gt;&lt;span style=&quot;font-size: 10.5000pt&quot;&gt;&lt;font face=&quot;宋体&quot;&gt;忽略&lt;/font&gt;&lt;/span&gt;&lt;/span&gt;&lt;/p&gt;" style="ellipse;whiteSpace=wrap;html=1;rounded=1;fillColor=#cdeb8b;strokeColor=#36393d;fontStyle=0" vertex="1" parent="1">
          <mxGeometry x="-470" y="620" width="120" height="60" as="geometry" />
        </mxCell>
        <mxCell id="Bgl1Vfubp7OZOoUCv1JT-36" value="&lt;p class=&quot;MsoNormal&quot;&gt;&lt;span&gt;&lt;span style=&quot;font-size: 10.5000pt&quot;&gt;&lt;font face=&quot;宋体&quot;&gt;处罚&lt;/font&gt;&lt;/span&gt;&lt;/span&gt;&lt;/p&gt;" style="ellipse;whiteSpace=wrap;html=1;rounded=1;fillColor=#cdeb8b;strokeColor=#36393d;fontStyle=0" vertex="1" parent="1">
          <mxGeometry x="-620" y="620" width="120" height="60" as="geometry" />
        </mxCell>
        <mxCell id="Bgl1Vfubp7OZOoUCv1JT-51" value="" style="edgeStyle=orthogonalEdgeStyle;rounded=1;orthogonalLoop=1;jettySize=auto;html=1;dashed=1;labelBackgroundColor=default;fontSize=12;" edge="1" parent="1" source="Bgl1Vfubp7OZOoUCv1JT-43" target="Bgl1Vfubp7OZOoUCv1JT-50">
          <mxGeometry relative="1" as="geometry" />
        </mxCell>
        <mxCell id="Bgl1Vfubp7OZOoUCv1JT-43" value="&lt;p class=&quot;MsoNormal&quot;&gt;&lt;b&gt;&lt;span style=&quot;font-size: 10.5000pt&quot;&gt;&lt;font face=&quot;宋体&quot;&gt;海量数据统计引擎&lt;/font&gt;&lt;/span&gt;&lt;/b&gt;&lt;/p&gt;" style="rounded=1;whiteSpace=wrap;html=1;fillColor=#fff2cc;gradientColor=#ffd966;strokeColor=#d6b656;" vertex="1" parent="1">
          <mxGeometry x="-540" y="790" width="120" height="60" as="geometry" />
        </mxCell>
        <mxCell id="Bgl1Vfubp7OZOoUCv1JT-53" value="" style="edgeStyle=orthogonalEdgeStyle;rounded=1;orthogonalLoop=1;jettySize=auto;html=1;dashed=1;labelBackgroundColor=default;fontSize=12;" edge="1" parent="1" source="Bgl1Vfubp7OZOoUCv1JT-50" target="Bgl1Vfubp7OZOoUCv1JT-52">
          <mxGeometry relative="1" as="geometry" />
        </mxCell>
        <mxCell id="Bgl1Vfubp7OZOoUCv1JT-54" value="否" style="edgeLabel;html=1;align=center;verticalAlign=middle;resizable=0;points=[];fontSize=12;" vertex="1" connectable="0" parent="Bgl1Vfubp7OZOoUCv1JT-53">
          <mxGeometry x="-0.8576" y="-1" relative="1" as="geometry">
            <mxPoint as="offset" />
          </mxGeometry>
        </mxCell>
        <mxCell id="Bgl1Vfubp7OZOoUCv1JT-58" value="" style="edgeStyle=orthogonalEdgeStyle;rounded=1;orthogonalLoop=1;jettySize=auto;html=1;dashed=1;labelBackgroundColor=default;fontSize=12;" edge="1" parent="1" source="Bgl1Vfubp7OZOoUCv1JT-50" target="Bgl1Vfubp7OZOoUCv1JT-63">
          <mxGeometry relative="1" as="geometry">
            <mxPoint x="-690" y="1010" as="targetPoint" />
          </mxGeometry>
        </mxCell>
        <mxCell id="Bgl1Vfubp7OZOoUCv1JT-59" value="是" style="edgeLabel;html=1;align=center;verticalAlign=middle;resizable=0;points=[];fontSize=12;" vertex="1" connectable="0" parent="Bgl1Vfubp7OZOoUCv1JT-58">
          <mxGeometry x="-0.725" relative="1" as="geometry">
            <mxPoint as="offset" />
          </mxGeometry>
        </mxCell>
        <mxCell id="Bgl1Vfubp7OZOoUCv1JT-50" value="&lt;p class=&quot;MsoNormal&quot;&gt;&lt;b&gt;&lt;span style=&quot;font-size: 10.5000pt&quot;&gt;&lt;font face=&quot;宋体&quot;&gt;嫌疑关系数&lt;/font&gt;≥&lt;font face=&quot;Times New Roman&quot;&gt;3(&lt;/font&gt;&lt;font face=&quot;宋体&quot;&gt;系数&lt;/font&gt;&lt;font face=&quot;Times New Roman&quot;&gt;)&lt;/font&gt;&lt;/span&gt;&lt;/b&gt;&lt;/p&gt;" style="rhombus;whiteSpace=wrap;html=1;fillColor=#fff2cc;strokeColor=#d6b656;rounded=1;gradientColor=#ffd966;" vertex="1" parent="1">
          <mxGeometry x="-520" y="880" width="80" height="80" as="geometry" />
        </mxCell>
        <mxCell id="Bgl1Vfubp7OZOoUCv1JT-52" value="结束" style="whiteSpace=wrap;html=1;fillColor=#fff2cc;strokeColor=#d6b656;rounded=1;gradientColor=#ffd966;" vertex="1" parent="1">
          <mxGeometry x="-200" y="1380" width="120" height="60" as="geometry" />
        </mxCell>
        <mxCell id="Bgl1Vfubp7OZOoUCv1JT-62" value="" style="edgeStyle=orthogonalEdgeStyle;rounded=1;orthogonalLoop=1;jettySize=auto;html=1;dashed=1;labelBackgroundColor=default;fontSize=11;entryX=0;entryY=0.5;entryDx=0;entryDy=0;" edge="1" parent="1" source="Bgl1Vfubp7OZOoUCv1JT-60" target="Bgl1Vfubp7OZOoUCv1JT-52">
          <mxGeometry relative="1" as="geometry">
            <mxPoint x="-495" y="1370" as="targetPoint" />
          </mxGeometry>
        </mxCell>
        <mxCell id="Bgl1Vfubp7OZOoUCv1JT-60" value="&lt;p class=&quot;MsoNormal&quot;&gt;&lt;b&gt;&lt;span style=&quot;font-size: 10.5000pt&quot;&gt;&lt;font face=&quot;宋体&quot;&gt;设置黑名单名单&lt;/font&gt;&lt;/span&gt;&lt;/b&gt;&lt;/p&gt;" style="rounded=1;whiteSpace=wrap;html=1;fillColor=#fff2cc;gradientColor=#ffd966;strokeColor=#d6b656;" vertex="1" parent="1">
          <mxGeometry x="-540" y="1380" width="120" height="60" as="geometry" />
        </mxCell>
        <mxCell id="Bgl1Vfubp7OZOoUCv1JT-63" value="&lt;p class=&quot;MsoNormal&quot; style=&quot;text-align: left ; font-size: 11px&quot;&gt;&lt;font style=&quot;font-size: 11px&quot;&gt;&lt;b style=&quot;font-size: 11px&quot;&gt;&lt;span style=&quot;font-size: 11px&quot;&gt;&lt;font face=&quot;宋体&quot; style=&quot;font-size: 11px&quot;&gt;嫌疑关系礼物金额&lt;/font&gt;&lt;font face=&quot;Times New Roman&quot; style=&quot;font-size: 11px&quot;&gt;99-199(&lt;/font&gt;&lt;font face=&quot;宋体&quot; style=&quot;font-size: 11px&quot;&gt;系数&lt;/font&gt;&lt;font face=&quot;Times New Roman&quot; style=&quot;font-size: 11px&quot;&gt;)&lt;/font&gt;&lt;/span&gt;&lt;/b&gt;&lt;b style=&quot;font-size: 11px&quot;&gt;&lt;span style=&quot;font-size: 11px&quot;&gt;&lt;/span&gt;&lt;/b&gt;&lt;/font&gt;&lt;/p&gt;&lt;p class=&quot;MsoNormal&quot; style=&quot;text-align: left ; font-size: 11px&quot;&gt;&lt;font style=&quot;font-size: 11px&quot;&gt;&lt;b style=&quot;font-size: 11px&quot;&gt;&lt;span style=&quot;font-size: 11px&quot;&gt;&lt;font face=&quot;宋体&quot; style=&quot;font-size: 11px&quot;&gt;女方&lt;/font&gt;&lt;font face=&quot;Times New Roman&quot; style=&quot;font-size: 11px&quot;&gt;24&lt;/font&gt;&lt;font face=&quot;宋体&quot; style=&quot;font-size: 11px&quot;&gt;小时内礼物收益区间为&lt;/font&gt;&lt;font face=&quot;Times New Roman&quot; style=&quot;font-size: 11px&quot;&gt;[42.4(&lt;/font&gt;&lt;font face=&quot;宋体&quot; style=&quot;font-size: 11px&quot;&gt;系数&lt;/font&gt;&lt;font face=&quot;Times New Roman&quot; style=&quot;font-size: 11px&quot;&gt;),85(&lt;/font&gt;&lt;font face=&quot;宋体&quot; style=&quot;font-size: 11px&quot;&gt;系数&lt;/font&gt;&lt;font face=&quot;Times New Roman&quot; style=&quot;font-size: 11px&quot;&gt;)]&lt;/font&gt;&lt;/span&gt;&lt;/b&gt;&lt;b style=&quot;font-size: 11px&quot;&gt;&lt;span style=&quot;font-size: 11px&quot;&gt;&lt;/span&gt;&lt;/b&gt;&lt;/font&gt;&lt;/p&gt;&lt;p class=&quot;MsoNormal&quot; style=&quot;text-align: left ; font-size: 11px&quot;&gt;&lt;font style=&quot;font-size: 11px&quot;&gt;&lt;b style=&quot;font-size: 11px&quot;&gt;&lt;span style=&quot;font-size: 11px&quot;&gt;&lt;font face=&quot;宋体&quot; style=&quot;font-size: 11px&quot;&gt;女方&lt;/font&gt;&lt;font face=&quot;Times New Roman&quot; style=&quot;font-size: 11px&quot;&gt;24&lt;/font&gt;&lt;font face=&quot;宋体&quot; style=&quot;font-size: 11px&quot;&gt;小时内基础消费＜&lt;/font&gt;&lt;font face=&quot;Times New Roman&quot; style=&quot;font-size: 11px&quot;&gt;21.3(&lt;/font&gt;&lt;font face=&quot;宋体&quot; style=&quot;font-size: 11px&quot;&gt;系数&lt;/font&gt;&lt;font face=&quot;Times New Roman&quot; style=&quot;font-size: 11px&quot;&gt;)&lt;/font&gt;&lt;/span&gt;&lt;/b&gt;&lt;b style=&quot;font-size: 11px&quot;&gt;&lt;span style=&quot;font-size: 11px&quot;&gt;&lt;/span&gt;&lt;/b&gt;&lt;/font&gt;&lt;/p&gt;&lt;p class=&quot;MsoNormal&quot; style=&quot;text-align: left ; font-size: 11px&quot;&gt;&lt;font face=&quot;Times New Roman&quot;&gt;&lt;b&gt;或者&lt;/b&gt;&lt;/font&gt;&lt;/p&gt;&lt;p class=&quot;MsoNormal&quot; style=&quot;text-align: left ; font-size: 11px&quot;&gt;&lt;font style=&quot;font-size: 11px&quot;&gt;&lt;b style=&quot;font-size: 11px&quot;&gt;&lt;span style=&quot;font-size: 11px&quot;&gt;&lt;font face=&quot;宋体&quot; style=&quot;font-size: 11px&quot;&gt;嫌疑关系礼物金额&lt;/font&gt;≥&lt;font face=&quot;Times New Roman&quot; style=&quot;font-size: 11px&quot;&gt;200(&lt;/font&gt;&lt;font face=&quot;宋体&quot; style=&quot;font-size: 11px&quot;&gt;系数&lt;/font&gt;&lt;font face=&quot;Times New Roman&quot; style=&quot;font-size: 11px&quot;&gt;)&lt;/font&gt;&lt;/span&gt;&lt;/b&gt;&lt;b style=&quot;font-size: 11px&quot;&gt;&lt;span style=&quot;font-size: 11px&quot;&gt;&lt;/span&gt;&lt;/b&gt;&lt;/font&gt;&lt;/p&gt;&lt;p class=&quot;MsoNormal&quot; style=&quot;text-align: left ; font-size: 11px&quot;&gt;&lt;font style=&quot;font-size: 11px&quot;&gt;&lt;b style=&quot;font-size: 11px&quot;&gt;&lt;span style=&quot;font-size: 11px&quot;&gt;&lt;font face=&quot;宋体&quot; style=&quot;font-size: 11px&quot;&gt;女方&lt;/font&gt;&lt;font face=&quot;Times New Roman&quot; style=&quot;font-size: 11px&quot;&gt;48&lt;/font&gt;&lt;font face=&quot;宋体&quot; style=&quot;font-size: 11px&quot;&gt;小时内礼物收≥&lt;/font&gt;&lt;font face=&quot;Times New Roman&quot; style=&quot;font-size: 11px&quot;&gt;85(&lt;/font&gt;&lt;font face=&quot;宋体&quot; style=&quot;font-size: 11px&quot;&gt;系数&lt;/font&gt;&lt;font face=&quot;Times New Roman&quot; style=&quot;font-size: 11px&quot;&gt;)&lt;/font&gt;&lt;/span&gt;&lt;/b&gt;&lt;b style=&quot;font-size: 11px&quot;&gt;&lt;span style=&quot;font-size: 11px&quot;&gt;&lt;/span&gt;&lt;/b&gt;&lt;/font&gt;&lt;/p&gt;&lt;p class=&quot;MsoNormal&quot; style=&quot;text-align: left ; font-size: 11px&quot;&gt;&lt;font style=&quot;font-size: 11px&quot;&gt;&lt;b style=&quot;font-size: 11px&quot;&gt;&lt;span style=&quot;font-size: 11px&quot;&gt;&lt;font face=&quot;宋体&quot; style=&quot;font-size: 11px&quot;&gt;女方&lt;/font&gt;&lt;font face=&quot;Times New Roman&quot; style=&quot;font-size: 11px&quot;&gt;48&lt;/font&gt;&lt;font face=&quot;宋体&quot; style=&quot;font-size: 11px&quot;&gt;小时内基础消费＜&lt;/font&gt;&lt;font face=&quot;Times New Roman&quot; style=&quot;font-size: 11px&quot;&gt;42.5(&lt;/font&gt;&lt;font face=&quot;宋体&quot; style=&quot;font-size: 11px&quot;&gt;系数&lt;/font&gt;&lt;font face=&quot;Times New Roman&quot; style=&quot;font-size: 11px&quot;&gt;)&lt;/font&gt;&lt;/span&gt;&lt;/b&gt;&lt;b style=&quot;font-size: 11px&quot;&gt;&lt;span style=&quot;font-size: 11px&quot;&gt;&lt;/span&gt;&lt;/b&gt;&lt;/font&gt;&lt;/p&gt;&lt;p class=&quot;MsoNormal&quot; style=&quot;text-align: left ; font-size: 11px&quot;&gt;&lt;b style=&quot;font-family: &amp;#34;times new roman&amp;#34;&quot;&gt;或者&lt;/b&gt;&lt;br&gt;&lt;/p&gt;&lt;p class=&quot;MsoNormal&quot; style=&quot;text-align: left ; font-size: 11px&quot;&gt;&lt;font style=&quot;font-size: 11px&quot;&gt;&lt;b style=&quot;font-size: 11px&quot;&gt;&lt;span style=&quot;font-size: 11px&quot;&gt;&lt;font face=&quot;宋体&quot; style=&quot;font-size: 11px&quot;&gt;嫌疑关系礼物金额&lt;/font&gt;≥&lt;font face=&quot;Times New Roman&quot; style=&quot;font-size: 11px&quot;&gt;400(&lt;/font&gt;&lt;font face=&quot;宋体&quot; style=&quot;font-size: 11px&quot;&gt;系数&lt;/font&gt;&lt;font face=&quot;Times New Roman&quot; style=&quot;font-size: 11px&quot;&gt;)&lt;/font&gt;&lt;/span&gt;&lt;/b&gt;&lt;b style=&quot;font-size: 11px&quot;&gt;&lt;span style=&quot;font-size: 11px&quot;&gt;&lt;/span&gt;&lt;/b&gt;&lt;/font&gt;&lt;/p&gt;&lt;p class=&quot;MsoNormal&quot; style=&quot;text-align: left ; font-size: 11px&quot;&gt;&lt;font style=&quot;font-size: 11px&quot;&gt;&lt;b style=&quot;font-size: 11px&quot;&gt;&lt;span style=&quot;font-size: 11px&quot;&gt;&lt;font face=&quot;宋体&quot; style=&quot;font-size: 11px&quot;&gt;女方&lt;/font&gt;&lt;font face=&quot;Times New Roman&quot; style=&quot;font-size: 11px&quot;&gt;48&lt;/font&gt;&lt;font face=&quot;宋体&quot; style=&quot;font-size: 11px&quot;&gt;小时内礼物收≥&lt;/font&gt;&lt;font face=&quot;Times New Roman&quot; style=&quot;font-size: 11px&quot;&gt;170(&lt;/font&gt;&lt;font face=&quot;宋体&quot; style=&quot;font-size: 11px&quot;&gt;系数&lt;/font&gt;&lt;font face=&quot;Times New Roman&quot; style=&quot;font-size: 11px&quot;&gt;)&lt;/font&gt;&lt;/span&gt;&lt;/b&gt;&lt;b style=&quot;font-size: 11px&quot;&gt;&lt;span style=&quot;font-size: 11px&quot;&gt;&lt;/span&gt;&lt;/b&gt;&lt;/font&gt;&lt;/p&gt;&lt;p class=&quot;MsoNormal&quot; style=&quot;text-align: left ; font-size: 11px&quot;&gt;&lt;b style=&quot;font-size: 11px&quot;&gt;&lt;span style=&quot;font-size: 11px&quot;&gt;&lt;font style=&quot;font-size: 11px&quot;&gt;&lt;font face=&quot;宋体&quot; style=&quot;font-size: 11px&quot;&gt;女方&lt;/font&gt;&lt;font face=&quot;Times New Roman&quot; style=&quot;font-size: 11px&quot;&gt;48&lt;/font&gt;&lt;font face=&quot;宋体&quot; style=&quot;font-size: 11px&quot;&gt;小时内基础消费＜&lt;/font&gt;&lt;font face=&quot;Times New Roman&quot; style=&quot;font-size: 11px&quot;&gt;85(&lt;/font&gt;&lt;font face=&quot;宋体&quot; style=&quot;font-size: 11px&quot;&gt;系数&lt;/font&gt;&lt;font face=&quot;Times New Roman&quot; style=&quot;font-size: 11px&quot;&gt;)&lt;/font&gt;&lt;/font&gt;&lt;/span&gt;&lt;/b&gt;&lt;b style=&quot;font-size: 15px&quot;&gt;&lt;span style=&quot;font-size: 10.5000pt&quot;&gt;&lt;/span&gt;&lt;/b&gt;&lt;/p&gt;" style="whiteSpace=wrap;html=1;fillColor=#fff2cc;strokeColor=#d6b656;rounded=1;gradientColor=#ffd966;" vertex="1" parent="1">
          <mxGeometry x="-675" y="1010" width="390" height="300" as="geometry" />
        </mxCell>
        <mxCell id="Bgl1Vfubp7OZOoUCv1JT-65" value="" style="edgeStyle=orthogonalEdgeStyle;rounded=1;orthogonalLoop=1;jettySize=auto;html=1;dashed=1;labelBackgroundColor=default;fontSize=11;entryX=0.5;entryY=0;entryDx=0;entryDy=0;exitX=1;exitY=0.5;exitDx=0;exitDy=0;" edge="1" parent="1" source="Bgl1Vfubp7OZOoUCv1JT-63" target="Bgl1Vfubp7OZOoUCv1JT-52">
          <mxGeometry relative="1" as="geometry">
            <mxPoint x="-130" y="1330" as="targetPoint" />
            <mxPoint x="-350" y="1330" as="sourcePoint" />
          </mxGeometry>
        </mxCell>
        <mxCell id="Bgl1Vfubp7OZOoUCv1JT-66" value="否" style="edgeLabel;html=1;align=center;verticalAlign=middle;resizable=0;points=[];fontSize=11;" vertex="1" connectable="0" parent="Bgl1Vfubp7OZOoUCv1JT-65">
          <mxGeometry x="-0.7108" y="1" relative="1" as="geometry">
            <mxPoint as="offset" />
          </mxGeometry>
        </mxCell>
        <mxCell id="Bgl1Vfubp7OZOoUCv1JT-67" value="" style="edgeStyle=orthogonalEdgeStyle;rounded=1;orthogonalLoop=1;jettySize=auto;html=1;dashed=1;labelBackgroundColor=default;fontSize=12;exitX=0.5;exitY=1;exitDx=0;exitDy=0;entryX=0.5;entryY=0;entryDx=0;entryDy=0;" edge="1" parent="1" source="Bgl1Vfubp7OZOoUCv1JT-63" target="Bgl1Vfubp7OZOoUCv1JT-60">
          <mxGeometry relative="1" as="geometry">
            <mxPoint x="-470" y="1020" as="targetPoint" />
            <mxPoint x="-470" y="970" as="sourcePoint" />
          </mxGeometry>
        </mxCell>
        <mxCell id="Bgl1Vfubp7OZOoUCv1JT-68" value="是" style="edgeLabel;html=1;align=center;verticalAlign=middle;resizable=0;points=[];fontSize=12;" vertex="1" connectable="0" parent="Bgl1Vfubp7OZOoUCv1JT-67">
          <mxGeometry x="-0.725" relative="1" as="geometry">
            <mxPoint as="offset" />
          </mxGeometry>
        </mxCell>
      </root>
    </mxGraphModel>
  </diagram>
</mxfile>
